<svg width="100" height="100" viewBox="0 0 100 100" fill="none" xmlns="http://www.w3.org/2000/svg">
<path d="M62.5 22.9062C61.9163 21.8986 61.0965 21.048 60.1112 20.4274C59.1259 19.8068 58.0046 19.4349 56.8438 19.3437C55.6873 19.2443 54.524 19.4303 53.4561 19.8852C52.3882 20.3402 51.4483 21.0502 50.7188 21.9531L29.0313 47.1875L12.9688 56.4531C11.3232 57.4087 10.1214 58.9754 9.62501 60.8125C9.37487 61.7234 9.3096 62.6752 9.43304 63.6117C9.55648 64.5482 9.86614 65.4506 10.3438 66.2656L15.9531 76C16.9087 77.6456 18.4755 78.8473 20.3125 79.3437C20.9234 79.5111 21.5541 79.5952 22.1875 79.5937C23.4376 79.5905 24.6653 79.262 25.75 78.6406L26.6875 80.2031C28.4256 83.2089 30.6362 85.9154 33.2344 88.2187L34.6406 89.4687C35.421 90.1897 36.4378 90.6009 37.5 90.625C38.2671 90.6259 39.0211 90.4267 39.6875 90.0468L44.2969 87.375C44.8963 87.0291 45.4048 86.5455 45.7802 85.9642C46.1557 85.3829 46.3873 84.7205 46.456 84.0319C46.5247 83.3433 46.4285 82.6482 46.1753 82.0041C45.9221 81.3601 45.5193 80.7856 45 80.3281C42.6495 78.241 40.6454 75.7939 39.0625 73.0781L38.125 71.5156L41.8125 69.3906L73.7969 61.25C74.8901 60.9953 75.9084 60.4881 76.7703 59.7691C77.6322 59.0501 78.3137 58.1392 78.7603 57.1094C79.2068 56.0796 79.406 54.9595 79.3418 53.8389C79.2776 52.7183 78.9518 51.6283 78.3906 50.6562L62.5 22.9062ZM21.125 76.3281C20.6095 76.1905 20.1262 75.9527 19.7026 75.6283C19.279 75.3039 18.9235 74.8993 18.6563 74.4375L13.0469 64.7031C12.6345 63.9902 12.4495 63.1684 12.5165 62.3476C12.5835 61.5268 12.8994 60.7459 13.4219 60.1093L17.9531 67.9218C18.1603 68.2824 18.5023 68.5458 18.9037 68.6542C19.3052 68.7627 19.7332 68.7072 20.0938 68.5C20.4543 68.2928 20.7177 67.9508 20.8262 67.5494C20.9346 67.1479 20.8791 66.7199 20.6719 66.3593L15.9844 58.2656L29.4531 50.4531L34.375 58.9218L39.2188 67.2968L35.2813 69.5312L25.6719 75.0781L24.2813 72.6562C24.0741 72.2957 23.7321 72.0322 23.3307 71.9238C22.9292 71.8154 22.5012 71.8709 22.1406 72.0781C21.7801 72.2853 21.5167 72.6272 21.4082 73.0287C21.2998 73.4301 21.3553 73.8582 21.5625 74.2187L22.8281 76.4062C22.2616 76.5054 21.6801 76.4787 21.125 76.3281ZM36.4219 74.6406C38.1511 77.6526 40.3628 80.3604 42.9688 82.6562C43.1157 82.7886 43.2291 82.9539 43.2998 83.1386C43.3704 83.3233 43.3962 83.5221 43.375 83.7187C43.358 83.915 43.2937 84.1043 43.1876 84.2703C43.0815 84.4363 42.9367 84.574 42.7656 84.6718L38.1563 87.3281C37.9313 87.4647 37.6682 87.5248 37.4063 87.4994C37.1444 87.4741 36.8977 87.3646 36.7031 87.1875L35.3125 85.9375C32.9607 83.8618 30.9608 81.4186 29.3906 78.7031L28.4531 77.1406L30.9844 75.6875L35.4844 73.0781L36.4219 74.6406ZM75.9531 55.8125C75.7027 56.3959 75.3171 56.9113 74.828 57.3161C74.339 57.721 73.7606 58.0036 73.1406 58.1406L42.0469 66.0625L31.9531 48.5781L53.125 23.9531C53.5391 23.4412 54.0715 23.0376 54.6762 22.7771C55.281 22.5166 55.9399 22.407 56.5964 22.4577C57.2529 22.5085 57.8873 22.718 58.4448 23.0683C59.0023 23.4187 59.4663 23.8992 59.7969 24.4687L75.75 52.1562C76.0665 52.7076 76.2498 53.3254 76.285 53.9603C76.3203 54.5951 76.2066 55.2294 75.9531 55.8125ZM75 33.4687C75.1021 33.6478 75.2386 33.8048 75.4016 33.9309C75.5647 34.057 75.751 34.1495 75.95 34.2033C76.149 34.257 76.3566 34.2709 76.561 34.244C76.7653 34.2172 76.9623 34.1501 77.1406 34.0468L84.6719 29.6875C85.0324 29.4803 85.2959 29.1383 85.4043 28.7369C85.5127 28.3354 85.4572 27.9074 85.25 27.5468C85.1474 27.3683 85.0107 27.2118 84.8476 27.0861C84.6845 26.9604 84.4982 26.8681 84.2994 26.8144C83.898 26.706 83.4699 26.7615 83.1094 26.9687L75.6406 31.2812C75.45 31.3777 75.2812 31.5122 75.1447 31.6764C75.0081 31.8407 74.9066 32.0312 74.8466 32.2362C74.7866 32.4412 74.7692 32.6564 74.7956 32.8684C74.822 33.0803 74.8915 33.2847 75 33.4687ZM71.875 27.0312C72.01 27.0466 72.1463 27.0466 72.2813 27.0312C72.634 27.0433 72.9805 26.9356 73.2642 26.7256C73.5479 26.5157 73.7522 26.2158 73.8438 25.875L76.0625 17.5468C76.124 17.3463 76.1445 17.1355 76.1227 16.927C76.101 16.7184 76.0375 16.5163 75.936 16.3328C75.8346 16.1493 75.6972 15.9881 75.5321 15.8588C75.367 15.7295 75.1776 15.6347 74.9751 15.5802C74.7726 15.5256 74.5613 15.5124 74.3536 15.5412C74.1459 15.5701 73.9461 15.6405 73.7662 15.7482C73.5862 15.8559 73.4298 15.9987 73.3062 16.1681C73.1827 16.3375 73.0945 16.5301 73.0469 16.7343L70.8125 25.0625C70.7503 25.2614 70.7285 25.4709 70.7485 25.6784C70.7685 25.8859 70.8298 26.0873 70.9288 26.2708C71.0278 26.4543 71.1625 26.616 71.325 26.7466C71.4875 26.8772 71.6745 26.974 71.875 27.0312ZM89.4688 40.875L81.1406 38.6406C80.9416 38.5872 80.734 38.5736 80.5297 38.6005C80.3254 38.6274 80.1284 38.6942 79.9499 38.7972C79.7715 38.9003 79.615 39.0374 79.4896 39.2009C79.3641 39.3643 79.2721 39.5509 79.2188 39.75C79.1654 39.949 79.1518 40.1566 79.1787 40.3609C79.2055 40.5652 79.2724 40.7622 79.3754 40.9407C79.4784 41.1191 79.6156 41.2755 79.7791 41.401C79.9425 41.5265 80.1291 41.6185 80.3281 41.6718L88.6563 43.8906C88.7908 43.9122 88.928 43.9122 89.0625 43.8906C89.4769 43.9445 89.8957 43.8315 90.2269 43.5766C90.558 43.3216 90.7743 42.9456 90.8281 42.5312C90.882 42.1168 90.7691 41.698 90.5141 41.3669C90.2592 41.0357 89.8832 40.8195 89.4688 40.7656V40.875Z" fill="#231F20"/>
</svg>
