<svg width="89" height="93" viewBox="0 0 89 93" fill="none" xmlns="http://www.w3.org/2000/svg">
<path d="M1.5625 92.1885H12.0988C12.3012 92.1957 12.5029 92.1625 12.6922 92.0906C12.8815 92.0188 13.0545 91.9098 13.201 91.7701C13.3476 91.6304 13.4648 91.4629 13.5456 91.2772C13.6265 91.0916 13.6694 90.8917 13.6719 90.6893V86.7197H74.6094V90.6893C74.6118 90.8917 74.6548 91.0916 74.7356 91.2772C74.8165 91.4629 74.9336 91.6304 75.0802 91.7701C75.2268 91.9098 75.3998 92.0188 75.5891 92.0906C75.7784 92.1625 75.9801 92.1957 76.1824 92.1885H86.7188C86.9205 92.1955 87.1217 92.1621 87.3103 92.09C87.4989 92.018 87.6711 91.9088 87.8168 91.769C87.9625 91.6293 88.0786 91.4617 88.1584 91.2762C88.2382 91.0907 88.28 90.8912 88.2812 90.6893V79.499C88.2815 79.084 88.1172 78.6858 87.8242 78.3918C87.5313 78.0978 87.1338 77.932 86.7188 77.9307H83.0078V14.2588H86.7188C87.1338 14.2575 87.5313 14.0917 87.8242 13.7976C88.1172 13.5036 88.2815 13.1054 88.2812 12.6904V1.50019C88.28 1.2983 88.2382 1.09872 88.1584 0.913251C88.0786 0.727784 87.9625 0.560202 87.8168 0.42042C87.6711 0.280638 87.4989 0.171496 87.3103 0.0994501C87.1217 0.0274043 86.9205 -0.00608112 86.7188 0.000975007H76.1824C75.9801 -0.00627838 75.7784 0.0269969 75.5891 0.098844C75.3998 0.170691 75.2268 0.27966 75.0802 0.419342C74.9336 0.559025 74.8165 0.726601 74.7356 0.912218C74.6548 1.09784 74.6118 1.29775 74.6094 1.50019V5.46973H13.6719V1.50019C13.6694 1.29775 13.6265 1.09784 13.5456 0.912218C13.4648 0.726601 13.3476 0.559025 13.201 0.419342C13.0545 0.27966 12.8815 0.170691 12.6922 0.098844C12.5029 0.0269969 12.3012 -0.00627838 12.0988 0.000975007H1.5625C1.36073 -0.00608112 1.15959 0.0274043 0.970983 0.0994501C0.782378 0.171496 0.61014 0.280638 0.464458 0.42042C0.318776 0.560202 0.20261 0.727784 0.122832 0.913251C0.0430552 1.09872 0.00128737 1.2983 3.09426e-07 1.50019V12.6904C-0.000260284 13.1054 0.164089 13.5036 0.457003 13.7976C0.749917 14.0917 1.14748 14.2575 1.5625 14.2588H5.27344V77.9307H1.5625C1.14748 77.932 0.749917 78.0978 0.457003 78.3918C0.164089 78.6858 -0.000260284 79.084 3.09426e-07 79.499V90.6893C0.00128737 90.8912 0.0430552 91.0907 0.122832 91.2762C0.20261 91.4617 0.318776 91.6293 0.464458 91.769C0.61014 91.9088 0.782378 92.018 0.970983 92.09C1.15959 92.1621 1.36073 92.1955 1.5625 92.1885ZM85.1562 89.0635H77.7344V81.0557H85.1562V89.0635ZM77.7344 3.12598H85.1562V11.1338H77.7344V3.12598ZM3.125 3.12598H10.5469V11.1338H3.125V3.12598ZM8.39844 14.2588H12.0988C12.5149 14.2579 12.9138 14.0925 13.2085 13.7987C13.5031 13.5049 13.6697 13.1065 13.6719 12.6904V8.59473H74.6094V12.6904C74.6115 13.1065 74.7781 13.5049 75.0728 13.7987C75.3675 14.0925 75.7663 14.2579 76.1824 14.2588H79.8828V77.9307H76.1824C75.7663 77.9316 75.3675 78.097 75.0728 78.3908C74.7781 78.6846 74.6115 79.0829 74.6094 79.499V83.5947H13.6719V79.499C13.6697 79.0829 13.5031 78.6846 13.2085 78.3908C12.9138 78.097 12.5149 77.9316 12.0988 77.9307H8.39844V14.2588ZM3.125 81.0557H10.5469V89.0635H3.125V81.0557Z" fill="black"/>
<path d="M29.5024 66.4072H27.7617C27.3473 66.4072 26.9499 66.5718 26.6569 66.8648C26.3638 67.1578 26.1992 67.5553 26.1992 67.9697C26.1992 68.3841 26.3638 68.7815 26.6569 69.0745C26.9499 69.3676 27.3473 69.5322 27.7617 69.5322H30.367L33.0664 79.3064C33.1567 79.6377 33.3525 79.9306 33.6243 80.1405C33.8961 80.3505 34.2289 80.466 34.5723 80.4697H54.3258C54.6742 80.466 55.0115 80.3471 55.2853 80.1316C55.559 79.9161 55.7537 79.616 55.8391 79.2783L58.3399 69.5322H60.5195C60.9339 69.5322 61.3314 69.3676 61.6244 69.0745C61.9174 68.7815 62.082 68.3841 62.082 67.9697C62.082 67.5553 61.9174 67.1578 61.6244 66.8648C61.3314 66.5718 60.9339 66.4072 60.5195 66.4072H59.142L63.8637 48.0501C63.9605 47.6767 63.9132 47.2804 63.7313 46.9402L45.5217 12.5417C45.3885 12.2909 45.1894 12.081 44.9459 11.9348C44.7024 11.7886 44.4236 11.7115 44.1395 11.7119C43.8555 11.7123 43.5769 11.7901 43.3337 11.937C43.0906 12.0838 42.8921 12.2942 42.7596 12.5455L24.5508 46.9496C24.3644 47.2951 24.3195 47.6997 24.4258 48.0777L29.5024 66.4072ZM53.1141 77.3447H35.7617L33.6096 69.5322H55.1135L53.1141 77.3447ZM44.1406 40.6421C44.6862 40.6421 45.2196 40.8039 45.6732 41.107C46.1269 41.4102 46.4805 41.841 46.6892 42.3451C46.898 42.8491 46.9527 43.4038 46.8462 43.9389C46.7398 44.474 46.4771 44.9656 46.0913 45.3514C45.7055 45.7371 45.2139 45.9999 44.6788 46.1063C44.1437 46.2128 43.589 46.1581 43.085 45.9493C42.5809 45.7405 42.1501 45.387 41.8469 44.9333C41.5438 44.4797 41.382 43.9463 41.382 43.4007C41.3829 42.6694 41.6738 41.9682 42.1909 41.451C42.7081 40.9339 43.4093 40.643 44.1406 40.6421ZM42.5781 19.5697V37.7294C41.2054 38.1076 40.0164 38.9707 39.2315 40.1587C38.4467 41.3468 38.1193 42.7791 38.3101 44.1901C38.5009 45.6012 39.1969 46.8951 40.2691 47.8321C41.3412 48.769 42.7168 49.2854 44.1406 49.2854C45.5645 49.2854 46.9401 48.769 48.0122 47.8321C49.0844 46.8951 49.7804 45.6012 49.9712 44.1901C50.162 42.7791 49.8346 41.3468 49.0497 40.1587C48.2649 38.9707 47.0759 38.1076 45.7031 37.7294V19.5697L60.6865 47.8582L55.9154 66.4072H32.7447L27.6025 47.8433L42.5781 19.5697Z" fill="black"/>
</svg>
