<svg width="100" height="100" viewBox="0 0 100 100" fill="none" xmlns="http://www.w3.org/2000/svg">
<path d="M89.287 61.9259L89.1537 23.1722C92.8259 22.8981 95.7407 19.8556 95.7407 16.113C95.7388 14.2271 94.9888 12.419 93.6552 11.0855C92.3217 9.75199 90.5137 9.00196 88.6278 9H12.1111C10.2255 9.00343 8.41823 9.75424 7.08528 11.0879C5.75232 12.4215 5.00245 14.2292 5 16.1148C5 19.8111 7.84444 22.8222 11.4537 23.1593L11.587 61.9111C7.91481 62.1852 5 65.2296 5 68.9704C5.00196 70.8559 5.75173 72.6637 7.08485 73.9972C8.41796 75.3306 10.2256 76.0809 12.1111 76.0833H30.4519L24.687 89.7796C22.7 94.5018 26.1667 99.7426 31.3037 99.7426C32.7172 99.7449 34.0997 99.3288 35.2771 98.5468C36.4546 97.7648 37.3743 96.6519 37.9204 95.3481L46.0278 76.0833H54.7093L62.8167 95.3481C63.363 96.6517 64.2827 97.7645 65.4601 98.5465C66.6375 99.3285 68.0199 99.7446 69.4333 99.7426C74.5574 99.7426 78.0426 94.5148 76.05 89.7796L70.2852 76.0833H88.6259C90.5118 76.0814 92.3199 75.3313 93.6534 73.9978C94.9869 72.6643 95.7369 70.8562 95.7389 68.9704C95.7407 65.2759 92.8963 62.2648 89.287 61.9259V61.9259ZM13.4389 61.8593L13.3056 23.3519L87.3019 23.2259L87.4352 61.7259L13.4389 61.8593V61.8593ZM6.85185 16.1148C6.85283 14.7201 7.40719 13.3828 8.39322 12.3964C9.37926 11.41 10.7164 10.8552 12.1111 10.8537H88.6278C90.0227 10.8552 91.36 11.4099 92.3463 12.3963C93.3327 13.3826 93.8874 14.7199 93.8889 16.1148C93.887 17.502 93.3375 18.8324 92.3599 19.8165C91.3823 20.8007 90.0557 21.3591 88.6685 21.3704C88.2648 21.1444 93.7889 21.2315 12.113 21.3741C10.7183 21.3731 9.38092 20.8187 8.39453 19.8327C7.40815 18.8467 6.85332 17.5095 6.85185 16.1148V16.1148ZM36.2148 94.6315C35.8093 95.5984 35.1268 96.4238 34.2532 97.0038C33.3797 97.5837 32.3541 97.8923 31.3056 97.8907C27.513 97.8907 24.9074 94.0333 26.3963 90.4981L32.463 76.0833H44.0222L36.2148 94.6315ZM74.3444 90.4981C75.8167 93.9944 73.2704 97.8907 69.4352 97.8907C68.3866 97.8923 67.3611 97.5837 66.4875 97.0038C65.6139 96.4238 64.9315 95.5984 64.5259 94.6315L56.7204 76.0833H68.2796L74.3444 90.4981V90.4981ZM88.6278 74.2315H12.1111C10.7164 74.23 9.37926 73.6752 8.39322 72.6888C7.40719 71.7024 6.85283 70.3651 6.85185 68.9704C6.85185 66.0815 9.1963 63.7296 12.0833 63.713C12.4796 63.9296 6.79074 63.8444 88.6296 63.7093C90.0242 63.7107 91.3612 64.2652 92.3475 65.2512C93.3338 66.2371 93.8888 67.574 93.8907 68.9685C93.8893 70.3639 93.3343 71.7017 92.3476 72.6884C91.361 73.675 90.0232 74.23 88.6278 74.2315Z" fill="black"/>
<path d="M57.0722 28.0908C56.8741 27.9457 56.6263 27.8852 56.3836 27.9227C56.1408 27.9602 55.9229 28.0926 55.7778 28.2908C55.6327 28.489 55.5722 28.7367 55.6097 28.9795C55.6472 29.2222 55.7796 29.4401 55.9778 29.5853L59.0482 31.8334C45.913 33.1556 35.6241 44.2742 35.6241 57.7538C35.6241 57.9994 35.7216 58.2349 35.8953 58.4085C36.0689 58.5822 36.3044 58.6797 36.55 58.6797C36.7956 58.6797 37.0311 58.5822 37.2047 58.4085C37.3784 58.2349 37.4759 57.9994 37.4759 57.7538C37.4759 45.0316 47.35 34.5927 59.8352 33.6464L57.1685 37.289C57.0967 37.3871 57.0448 37.4984 57.016 37.6166C56.9872 37.7347 56.9819 37.8574 57.0004 37.9776C57.019 38.0978 57.0611 38.2132 57.1242 38.3171C57.1874 38.4211 57.2704 38.5115 57.3685 38.5834C57.4667 38.6553 57.578 38.7071 57.6961 38.7359C57.8143 38.7648 57.937 38.7701 58.0572 38.7515C58.1774 38.7329 58.2927 38.6909 58.3967 38.6277C58.5006 38.5645 58.5911 38.4815 58.663 38.3834L62.4667 33.189C62.5386 33.0909 62.5904 32.9795 62.6193 32.8614C62.6481 32.7432 62.6534 32.6205 62.6349 32.5003C62.6163 32.3801 62.5742 32.2647 62.511 32.1608C62.4479 32.0568 62.3648 31.9664 62.2667 31.8945L57.0722 28.0908ZM37.8445 34.0797C37.8445 31.3575 35.6296 29.1408 32.9056 29.1408C30.1815 29.1408 27.9667 31.3556 27.9667 34.0797C27.9667 36.813 30.1815 39.0353 32.9056 39.0353C35.6296 39.0353 37.8445 36.813 37.8445 34.0797V34.0797ZM32.9056 37.1853C32.085 37.1818 31.2993 36.8532 30.7206 36.2714C30.1419 35.6896 29.8175 34.9021 29.8185 34.0816C29.8185 32.3797 31.2037 30.9945 32.9056 30.9945C34.6074 30.9945 35.9926 32.3797 35.9926 34.0816C35.9926 35.7927 34.6074 37.1853 32.9056 37.1853ZM71.8778 48.1593L74.1056 45.9316C74.2742 45.7569 74.3676 45.523 74.3654 45.2803C74.3633 45.0375 74.266 44.8053 74.0943 44.6336C73.9226 44.4619 73.6904 44.3645 73.4476 44.3624C73.2048 44.3603 72.9709 44.4536 72.7963 44.6223L70.5685 46.8501L68.3407 44.6223C68.1661 44.4536 67.9322 44.3603 67.6895 44.3624C67.4467 44.3645 67.2144 44.4619 67.0428 44.6336C66.8711 44.8053 66.7737 45.0375 66.7716 45.2803C66.7695 45.523 66.8628 45.7569 67.0315 45.9316L69.2593 48.1593L67.0315 50.3871C66.8628 50.5617 66.7695 50.7956 66.7716 51.0384C66.7737 51.2812 66.8711 51.5134 67.0428 51.6851C67.2144 51.8568 67.4467 51.9541 67.6895 51.9563C67.9322 51.9584 68.1661 51.865 68.3407 51.6964L70.5685 49.4686L72.7963 51.6964C72.9709 51.865 73.2048 51.9584 73.4476 51.9563C73.6904 51.9541 73.9226 51.8568 74.0943 51.6851C74.266 51.5134 74.3633 51.2812 74.3654 51.0384C74.3676 50.7956 74.2742 50.5617 74.1056 50.3871L71.8778 48.1593ZM54.8167 46.9204C53.5073 46.9219 52.2519 47.4427 51.326 48.3686C50.4001 49.2945 49.8793 50.5499 49.8778 51.8593C49.8778 54.5927 52.0926 56.8149 54.8167 56.8149C57.5407 56.8149 59.7556 54.5927 59.7556 51.8593C59.7541 50.5499 59.2333 49.2945 58.3074 48.3686C57.3815 47.4427 56.1261 46.9219 54.8167 46.9204V46.9204ZM54.8167 54.963C53.9961 54.9596 53.2104 54.631 52.6317 54.0492C52.053 53.4674 51.7286 52.6799 51.7296 51.8593C51.7311 51.0411 52.0568 50.2567 52.6354 49.6781C53.214 49.0995 53.9984 48.7738 54.8167 48.7723C55.635 48.7738 56.4193 49.0995 56.9979 49.6781C57.5765 50.2567 57.9022 51.0411 57.9037 51.8593C57.9037 53.5704 56.5185 54.963 54.8167 54.963Z" fill="black"/>
</svg>
