<svg width="90" height="78" viewBox="0 0 90 78" fill="currentColor" xmlns="http://www.w3.org/2000/svg">
<path d="M88.75 0.5H1.25C0.984784 0.5 0.73043 0.605357 0.542893 0.792893C0.355357 0.98043 0.25 1.23478 0.25 1.5V76.5C0.25 76.7652 0.355357 77.0196 0.542893 77.2071C0.73043 77.3946 0.984784 77.5 1.25 77.5H88.75C89.0152 77.5 89.2696 77.3946 89.4571 77.2071C89.6446 77.0196 89.75 76.7652 89.75 76.5V1.5C89.75 1.23478 89.6446 0.98043 89.4571 0.792893C89.2696 0.605357 89.0152 0.5 88.75 0.5ZM2.25 2.5H14.83V15.5H2.25V2.5ZM87.75 75.5H2.25V17.5H87.75V75.5ZM87.75 15.5H16.83V2.5H87.75V15.5Z" fill="currentColor"/>
<path d="M54.15 48.6799C54.8626 48.6859 55.5715 48.5779 56.25 48.3599C56.9743 48.1348 57.6467 47.7682 58.2282 47.2813C58.8097 46.7944 59.2888 46.1968 59.6376 45.5234C59.9865 44.8499 60.1981 44.1139 60.2603 43.358C60.3225 42.6021 60.234 41.8413 60 41.1199L65.12 21.9999C65.1849 21.7481 65.1491 21.4809 65.0203 21.255C64.8915 21.0291 64.6798 20.8623 64.43 20.7899L61.51 19.9999C61.2594 19.9278 60.9906 19.9565 60.7608 20.0798C60.531 20.2031 60.3585 20.4112 60.28 20.6599L54.45 38.9999C53.3536 39.3392 52.4073 40.0454 51.77 40.9999C50.65 42.3099 49.87 43.0799 48.69 42.7399C48.5171 42.6924 48.3346 42.6923 48.1616 42.7396C47.9887 42.7869 47.8316 42.8798 47.7069 43.0086C47.5821 43.1374 47.4943 43.2974 47.4527 43.4718C47.411 43.6462 47.417 43.8286 47.47 43.9999C47.9548 45.3802 48.8598 46.5739 50.058 47.4133C51.2561 48.2527 52.6871 48.6957 54.15 48.6799ZM61.89 22.1699L62.89 22.4699L58.3 39.8499L56.43 39.3099L61.89 22.1699ZM53.29 42.2299C54 41.4099 54.54 40.8399 54.89 40.9399L58.15 41.9399C58.4168 42.8787 58.303 43.8847 57.8331 44.7402C57.3633 45.5956 56.5754 46.2314 55.64 46.5099C54.6402 46.8332 53.5639 46.8333 52.5641 46.5102C51.5642 46.1871 50.6915 45.5572 50.07 44.7099C51.3802 44.2474 52.5083 43.3785 53.29 42.2299ZM70.81 44.9999L78.81 33.8599C78.9329 33.6896 78.999 33.4849 78.999 33.2749C78.999 33.0649 78.9329 32.8602 78.81 32.6899L70.81 21.5399L69.19 22.7099L76.78 33.2699L69.19 43.8499L70.81 44.9999ZM44.19 45.8499L45.81 44.6799L37.62 33.2799L45.81 21.8899L44.19 20.7199L35.58 32.7199C35.4571 32.8902 35.391 33.0949 35.391 33.3049C35.391 33.5149 35.4571 33.7196 35.58 33.8899L44.19 45.8499ZM35.63 57.1899H82.88C83.1452 57.1899 83.3996 57.0845 83.5871 56.897C83.7746 56.7095 83.88 56.4551 83.88 56.1899V51.4999C83.88 51.2347 83.7746 50.9803 83.5871 50.7928C83.3996 50.6052 83.1452 50.4999 82.88 50.4999H35.63C35.3648 50.4999 35.1104 50.6052 34.9229 50.7928C34.7354 50.9803 34.63 51.2347 34.63 51.4999V56.1899C34.63 56.4551 34.7354 56.7095 34.9229 56.897C35.1104 57.0845 35.3648 57.1899 35.63 57.1899ZM36.63 52.4999H81.88V55.1899H36.63V52.4999ZM35.63 68.1299H73.87C74.1352 68.1299 74.3896 68.0245 74.5771 67.837C74.7646 67.6495 74.87 67.3951 74.87 67.1299V62.4399C74.87 62.1747 74.7646 61.9203 74.5771 61.7328C74.3896 61.5452 74.1352 61.4399 73.87 61.4399H35.63C35.3648 61.4399 35.1104 61.5452 34.9229 61.7328C34.7354 61.9203 34.63 62.1747 34.63 62.4399V67.1299C34.63 67.3951 34.7354 67.6495 34.9229 67.837C35.1104 68.0245 35.3648 68.1299 35.63 68.1299ZM36.63 63.4399H72.87V66.1299H36.63V63.4399ZM6.5 23.3799V45.2499C6.5 45.5151 6.60536 45.7695 6.79289 45.957C6.98043 46.1445 7.23478 46.2499 7.5 46.2499H29.38C29.6452 46.2499 29.8996 46.1445 30.0871 45.957C30.2746 45.7695 30.38 45.5151 30.38 45.2499V23.3799C30.38 23.1147 30.2746 22.8603 30.0871 22.6728C29.8996 22.4853 29.6452 22.3799 29.38 22.3799H7.5C7.23478 22.3799 6.98043 22.4853 6.79289 22.6728C6.60536 22.8603 6.5 23.1147 6.5 23.3799ZM8.5 24.3799H28.38V44.2499H8.5V24.3799ZM29.38 50.4999H7.5C7.23478 50.4999 6.98043 50.6052 6.79289 50.7928C6.60536 50.9803 6.5 51.2347 6.5 51.4999V70.2499C6.5 70.5151 6.60536 70.7695 6.79289 70.957C6.98043 71.1445 7.23478 71.2499 7.5 71.2499H29.38C29.6452 71.2499 29.8996 71.1445 30.0871 70.957C30.2746 70.7695 30.38 70.5151 30.38 70.2499V51.4999C30.38 51.2347 30.2746 50.9803 30.0871 50.7928C29.8996 50.6052 29.6452 50.4999 29.38 50.4999ZM26.67 52.4999L18.44 59.5599L10.2 52.4999H26.67ZM8.5 53.6699L16.9 60.8799L8.5 68.0799V53.6699ZM10.2 69.2499L18.44 62.1899L26.67 69.2499H10.2ZM28.38 68.0799L20 60.8799L28.41 53.6699L28.38 68.0799ZM33.05 12.1199C33.0658 12.1999 33.0927 12.2774 33.13 12.3499C33.1726 12.409 33.2318 12.4543 33.3 12.4799C33.4035 12.5141 33.5111 12.5343 33.62 12.5399H34.68C34.789 12.5353 34.8968 12.5151 35 12.4799C35.0659 12.4499 35.1215 12.4012 35.16 12.3399C35.2019 12.273 35.2291 12.198 35.24 12.1199L36.39 7.31989L37.61 12.1199C37.6212 12.2011 37.6484 12.2793 37.69 12.3499C37.728 12.4133 37.7888 12.4598 37.86 12.4799C37.9632 12.5151 38.071 12.5353 38.18 12.5399H39.18C39.2856 12.5345 39.39 12.5143 39.49 12.4799C39.5665 12.46 39.6337 12.414 39.68 12.3499C39.7254 12.2802 39.756 12.2019 39.77 12.1199L41.51 5.52989C41.5421 5.41516 41.5655 5.29816 41.58 5.17989C41.5831 5.11146 41.5618 5.04415 41.52 4.98989C41.4611 4.94019 41.387 4.91199 41.31 4.90989H40.48C40.4 4.9138 40.3217 4.93423 40.25 4.96989C40.2256 4.97777 40.2032 4.99076 40.1842 5.00801C40.1652 5.02525 40.1502 5.04635 40.14 5.06989C40.1343 5.12307 40.1343 5.17671 40.14 5.22989L38.8 10.9999L37.37 5.23989C37.3561 5.17346 37.3325 5.10944 37.3 5.04989C37.2716 4.99857 37.2253 4.95944 37.17 4.93989C37.0889 4.9135 37.005 4.89672 36.92 4.88989H36C35.9137 4.89429 35.8289 4.91463 35.75 4.94989C35.6959 4.96612 35.6496 5.00172 35.62 5.04989C35.5867 5.10821 35.5662 5.173 35.56 5.23989L34.21 10.9999L32.88 5.19989C32.8735 5.13752 32.8566 5.07667 32.83 5.01989C32.8056 4.97744 32.7665 4.94541 32.72 4.92989C32.6405 4.91701 32.5595 4.91701 32.48 4.92989H31.57C31.484 4.93306 31.4007 4.96082 31.33 5.00989C31.305 5.03412 31.2865 5.06416 31.276 5.09732C31.2656 5.13049 31.2635 5.16573 31.27 5.19989C31.2597 5.30965 31.2597 5.42014 31.27 5.52989L33.05 12.1199ZM47.83 12.1199C47.8531 12.1991 47.8832 12.2761 47.92 12.3499C47.9607 12.4109 48.0205 12.4566 48.09 12.4799C48.1935 12.5141 48.3011 12.5343 48.41 12.5399H49.47C49.5758 12.5355 49.6802 12.5153 49.78 12.4799C49.8503 12.4527 49.9099 12.4036 49.95 12.3399C49.9919 12.273 50.0191 12.198 50.03 12.1199L51.18 7.31989L52.4 12.1199C52.4065 12.2022 52.434 12.2814 52.48 12.3499C52.518 12.4133 52.5788 12.4598 52.65 12.4799C52.7532 12.5151 52.861 12.5353 52.97 12.5399H53.97C54.0789 12.5343 54.1865 12.5141 54.29 12.4799C54.364 12.4546 54.4297 12.4097 54.48 12.3499C54.5254 12.2802 54.556 12.2019 54.57 12.1199L56.31 5.52989C56.3447 5.41622 56.3648 5.29862 56.37 5.17989C56.3829 5.14989 56.3896 5.11756 56.3896 5.08489C56.3896 5.05222 56.3829 5.01989 56.37 4.98989C56.3111 4.94019 56.237 4.91199 56.16 4.90989H55.33C55.25 4.9138 55.1717 4.93423 55.1 4.96989C55.0756 4.97777 55.0532 4.99076 55.0342 5.00801C55.0152 5.02525 55.0002 5.04635 54.99 5.06989C54.9843 5.12307 54.9843 5.17671 54.99 5.22989L53.59 10.9999L52.16 5.23989C52.1461 5.17346 52.1226 5.10944 52.09 5.04989C52.064 5.02691 52.0333 5.00985 52 4.99989C51.9154 4.97369 51.8282 4.95692 51.74 4.94989H50.87C50.7839 4.95555 50.6993 4.97584 50.62 5.00989C50.5943 5.01766 50.5704 5.03051 50.5498 5.04769C50.5292 5.06487 50.5123 5.08603 50.5 5.10989C50.4674 5.16944 50.4439 5.23346 50.43 5.29989L49 10.9999L47.67 5.19989C47.6587 5.13854 47.6419 5.0783 47.62 5.01989C47.5956 4.97744 47.5564 4.94541 47.51 4.92989C47.4272 4.91609 47.3428 4.91609 47.26 4.92989H46.36C46.274 4.93306 46.1907 4.96082 46.12 5.00989C46.0957 5.03493 46.077 5.06477 46.0649 5.09749C46.0528 5.13021 46.0478 5.16509 46.05 5.19989C46.05 5.27989 46.07 5.38989 46.11 5.52989L47.83 12.1199ZM62.62 12.1199C62.6431 12.1991 62.6732 12.2761 62.71 12.3499C62.7507 12.4109 62.8105 12.4566 62.88 12.4799C62.9832 12.5151 63.091 12.5353 63.2 12.5399H64.26C64.3656 12.5345 64.47 12.5143 64.57 12.4799C64.6386 12.4501 64.6975 12.4015 64.74 12.3399C64.7774 12.2709 64.8044 12.1968 64.82 12.1199L66 7.31989L67.21 12.1199C67.2257 12.1999 67.2527 12.2774 67.29 12.3499C67.3326 12.409 67.3918 12.4543 67.46 12.4799C67.5635 12.5141 67.6711 12.5343 67.78 12.5399H68.78C68.8889 12.5343 68.9965 12.5141 69.1 12.4799C69.1725 12.4572 69.2357 12.4116 69.28 12.3499C69.3289 12.281 69.363 12.2027 69.38 12.1199L71.12 5.52989C71.1547 5.41622 71.1748 5.29862 71.18 5.17989C71.1929 5.14989 71.1996 5.11756 71.1996 5.08489C71.1996 5.05222 71.1929 5.01989 71.18 4.98989C71.1191 4.94371 71.0462 4.91594 70.97 4.90989H70.1C70.0171 4.91549 69.9358 4.9358 69.86 4.96989C69.8128 4.98945 69.774 5.0248 69.75 5.06989C69.7443 5.12307 69.7443 5.17671 69.75 5.22989L68.38 10.9999L66.96 5.23989C66.9461 5.17346 66.9226 5.10944 66.89 5.04989C66.8591 5.00062 66.8137 4.96217 66.76 4.93989C66.6754 4.91369 66.5882 4.89692 66.5 4.88989H65.63C65.5439 4.89555 65.4593 4.91584 65.38 4.94989C65.3273 4.96894 65.2819 5.00388 65.25 5.04989C65.2257 5.11177 65.2056 5.17526 65.19 5.23989L63.79 10.9999L62.46 5.19989C62.4691 5.14023 62.4691 5.07955 62.46 5.01989C62.4472 4.99753 62.4299 4.97802 62.4093 4.96255C62.3886 4.94708 62.3651 4.93597 62.34 4.92989C62.2607 4.915 62.1793 4.915 62.1 4.92989H61.2C61.114 4.93306 61.0307 4.96082 60.96 5.00989C60.9357 5.03493 60.917 5.06477 60.9049 5.09749C60.8928 5.13021 60.8878 5.16509 60.89 5.19989C60.9007 5.31138 60.9208 5.42177 60.95 5.52989L62.62 12.1199Z" fill="currentColor"/>
</svg>
